<svg width="210" height="150" viewBox="0 0 210 150" fill="none" xmlns="http://www.w3.org/2000/svg">
<path fill-rule="evenodd" clip-rule="evenodd" d="M87.612 58.2474L87.1593 61.9137H78.514V89.4339H74.214V61.9137H65.3423V58.2474H87.612V58.2474ZM101.342 65.0369C102.187 65.0369 102.971 65.1274 103.695 65.3085L102.926 69.3822C102.202 69.2011 101.508 69.1106 100.844 69.1106C99.3652 69.1106 98.1732 69.6538 97.2679 70.7401C96.3626 71.8264 95.6536 73.5162 95.1405 75.8096V89.4339H90.9763V65.5801H94.5521L94.9595 70.4233C95.5932 68.6429 96.4531 67.3001 97.5395 66.3948C98.6258 65.4895 99.8932 65.0369 101.342 65.0369V65.0369ZM126.18 89.4339H122.604L122.287 85.7223C121.382 87.201 120.341 88.2873 119.164 88.9813C117.987 89.6452 116.553 89.9771 114.864 89.9771C112.782 89.9771 111.152 89.3434 109.975 88.076C108.799 86.8086 108.21 85.0132 108.21 82.6897V65.5801H112.374V82.237C112.374 83.8665 112.661 85.0283 113.234 85.7223C113.808 86.3862 114.743 86.7181 116.041 86.7181C118.364 86.7181 120.356 85.3451 122.015 82.5992V65.5801H126.18V89.4339V89.4339ZM152.796 76.8054C152.796 77.4994 152.766 78.2086 152.706 78.9328H137.497C137.678 81.5581 138.342 83.4894 139.489 84.7265C140.635 85.9637 142.114 86.5823 143.925 86.5823C145.071 86.5823 146.127 86.4164 147.093 86.0844C148.058 85.7525 149.069 85.2244 150.126 84.5002L151.936 86.9897C149.402 88.9813 146.625 89.9771 143.608 89.9771C140.288 89.9771 137.693 88.8908 135.822 86.7181C133.981 84.5455 133.061 81.5581 133.061 77.756C133.061 75.2815 133.453 73.0938 134.238 71.1927C135.053 69.2615 136.199 67.7527 137.678 66.6664C139.187 65.5801 140.952 65.0369 142.974 65.0369C146.143 65.0369 148.571 66.078 150.262 68.1601C151.951 70.2422 152.796 73.124 152.796 76.8054ZM148.677 75.5833C148.677 73.2296 148.209 71.4341 147.274 70.197C146.338 68.9598 144.935 68.3411 143.065 68.3411C139.654 68.3411 137.798 70.8457 137.497 75.8549H148.677V75.5833ZM167.548 58.8358C166.281 58.8358 165.375 59.1224 164.832 59.6958C164.289 60.239 164.018 61.099 164.018 62.2758V65.5801H169.811L169.359 68.7938H164.018V89.4339H159.853V68.7938H155.599V65.5801H159.853V62.3211C159.853 60.2692 160.503 58.6246 161.8 57.3874C163.128 56.12 164.968 55.4863 167.322 55.4863C168.408 55.4863 169.374 55.5919 170.219 55.8032C171.094 55.9842 172.029 56.286 173.025 56.7084L171.712 59.7411C170.354 59.1376 168.967 58.8358 167.548 58.8358V58.8358ZM184.158 89.5697C183.222 92.3459 181.91 94.5337 180.22 96.1329C178.56 97.7624 176.177 98.7432 173.069 99.0751L172.616 95.8161C174.185 95.5445 175.437 95.1522 176.373 94.6392C177.309 94.1263 178.048 93.4624 178.591 92.6476C179.164 91.8631 179.692 90.7919 180.175 89.4339H178.772L170.76 65.5801H175.196L181.578 86.4013L187.824 65.5801H192.125L184.158 89.5697V89.5697Z" fill="#0099FF"/>
<path fill-rule="evenodd" clip-rule="evenodd" d="M19 74.9209L46.4218 59.5137V75.0609L19 90.4071V74.9209Z" fill="#00FFFF"/>
<path fill-rule="evenodd" clip-rule="evenodd" d="M28 59.3493L55.4218 44V59.5266L28 74.89V59.3493Z" fill="#0000FF"/>
<path fill-rule="evenodd" clip-rule="evenodd" d="M41.5838 104.435L41.6223 73L28.0508 80.5849L28 112.027L41.5838 104.435Z" fill="#0099FF"/>
</svg>
